<svg xmlns="http://www.w3.org/2000/svg" xmlns:xlink="http://www.w3.org/1999/xlink" width="224" viewBox="609 292 224 224" height="224" preserveAspectRatio="xMidYMid meet" version="1.0"><style>path{fill:white}@media(prefers-color-scheme:light){path{fill:#1a1a1a}}</style><defs><clipPath id="824cfc90f2"><path d="M 609.84375 292.375 L 832.59375 292.375 L 832.59375 515.125 L 609.84375 515.125 Z M 609.84375 292.375 " clip-rule="nonzero" data-index="0"></path></clipPath></defs><g clip-path="url(#824cfc90f2)"></g><path fill="#640017" d="M 825.503906 398.773438 C 825.144531 424.253906 818.476562 445.976562 804.148438 465.085938 C 790.242188 483.636719 772.117188 496.207031 749.742188 502.59375 C 736.839844 506.277344 723.71875 507.777344 710.382812 506.398438 C 697.410156 505.058594 685 501.511719 673.347656 495.558594 C 658.609375 488.023438 646.566406 477.355469 636.78125 464.042969 C 627.808594 451.832031 621.613281 438.347656 618.15625 423.625 C 615.582031 412.652344 615.113281 401.546875 616.195312 390.332031 C 617.28125 379.105469 620.261719 368.390625 624.765625 358.117188 C 630.507812 345.019531 638.496094 333.4375 649.050781 323.714844 C 663.328125 310.558594 679.867188 301.652344 699.027344 298.125 C 705.894531 296.863281 712.925781 296.046875 719.898438 295.929688 C 742.128906 295.550781 762.441406 301.832031 780.726562 314.550781 C 795.828125 325.054688 807 338.8125 814.957031 355.339844 C 819.796875 365.394531 823.039062 375.898438 824.570312 386.914062 C 825.191406 391.386719 825.289062 395.933594 825.503906 398.773438 Z M 721.09375 304.265625 C 721.078125 304.113281 721.058594 303.964844 721.042969 303.8125 C 714.625 304.519531 708.136719 304.851562 701.800781 306 C 685.746094 308.917969 671.3125 315.519531 658.742188 326.03125 C 646.8125 336.011719 637.789062 348.15625 631.734375 362.46875 C 628.058594 371.152344 625.753906 380.21875 624.773438 389.617188 C 623.832031 398.625 623.824219 407.632812 625.28125 416.558594 C 627.023438 427.203125 630.371094 437.34375 635.519531 446.902344 C 644.820312 464.175781 657.78125 477.769531 675.101562 487.101562 C 688.738281 494.445312 703.332031 498.316406 718.792969 498.578125 C 730.746094 498.777344 742.410156 496.746094 753.671875 492.664062 C 769.039062 487.09375 782.089844 478.199219 792.855469 465.832031 C 806.265625 450.429688 814.15625 432.667969 816.523438 412.421875 C 818.167969 398.339844 816.964844 384.519531 812.460938 371.042969 C 804.636719 347.660156 790.367188 329.347656 769.003906 316.882812 C 754.242188 308.277344 738.226562 304.050781 721.09375 304.265625 Z M 721.09375 304.265625 " fill-opacity="1" fill-rule="nonzero" data-index="2" style="opacity: 1;"></path><path fill="#640017" d="M 657.023438 373.941406 C 656.378906 371.828125 655.511719 369.882812 655.214844 367.847656 C 654.121094 360.363281 657.046875 354.585938 663.191406 350.371094 C 664.472656 349.492188 665.953125 348.910156 667.285156 348.097656 C 667.636719 347.886719 668.015625 347.3125 667.980469 346.9375 C 667.46875 341.15625 669.492188 336.339844 673.609375 332.390625 C 677.804688 328.367188 682.820312 326.492188 688.664062 327.21875 C 689.851562 327.367188 690.113281 326.667969 690.507812 325.878906 C 695.082031 316.710938 707.789062 313.230469 716.386719 318.804688 C 717.238281 319.355469 718.019531 320.042969 718.742188 320.761719 C 719.421875 321.441406 719.976562 322.242188 720.691406 323.121094 C 725.289062 318.191406 730.707031 315.371094 737.628906 316.507812 C 744.367188 317.613281 749.109375 321.347656 752 327.472656 C 759.632812 325.929688 768.527344 329.898438 772.382812 338.351562 C 773.613281 341.050781 773.929688 343.933594 773.863281 346.886719 C 773.855469 347.351562 774.292969 348.101562 774.699219 348.25 C 783.324219 351.390625 790.242188 361.640625 785.199219 372.839844 C 785.070312 373.125 784.988281 373.433594 784.925781 373.609375 C 791.371094 377.976562 794.742188 384.074219 794.03125 391.613281 C 793.335938 398.96875 789.6875 404.945312 782.625 408.261719 C 787.722656 420.101562 776.835938 436.148438 762.621094 434.320312 C 761.488281 438.875 756.988281 441.105469 754.957031 444.996094 C 752.785156 449.15625 748.445312 451 746.015625 454.722656 C 746.8125 455.703125 747.734375 456.691406 748.5 457.785156 C 750.4375 460.566406 750.472656 462.949219 748.460938 465.691406 C 747.417969 467.109375 746.699219 468.492188 746.519531 470.308594 C 746.261719 472.917969 743.835938 474.730469 740.753906 474.898438 C 741.742188 473.527344 742.460938 472.101562 741.265625 470.667969 C 740.816406 470.128906 739.953125 469.621094 739.28125 469.628906 C 731.679688 469.6875 724.078125 469.894531 716.476562 469.96875 C 711.566406 470.015625 706.65625 469.890625 701.742188 469.878906 C 701.050781 469.875 700.332031 469.988281 699.667969 470.1875 C 697.804688 470.738281 697.480469 472.183594 698.691406 474.320312 C 696.492188 473.589844 695.828125 472.539062 695.738281 470.332031 C 695.695312 469.335938 695.4375 468.070312 694.785156 467.425781 C 690.261719 462.976562 692.199219 458.722656 695.683594 454.796875 C 695.929688 454.523438 696.234375 454.300781 696.664062 453.921875 C 693.945312 453.058594 692.929688 451.179688 692.988281 448.605469 C 693.015625 447.3125 692.425781 446.566406 691.152344 446.144531 C 686.347656 444.554688 682.632812 441.578125 680.144531 437.144531 C 679.570312 436.121094 679.148438 435.011719 678.605469 433.828125 C 671.667969 434.585938 666.21875 431.820312 662.023438 426.417969 C 657.902344 421.109375 656.222656 415.289062 658.773438 408.597656 C 652.277344 404.734375 648.136719 399.101562 647.582031 391.503906 C 647.007812 383.757812 650.792969 377.988281 657.023438 373.941406 Z M 738.230469 409.851562 C 738.433594 409.878906 738.632812 409.910156 738.835938 409.9375 C 739.347656 409.320312 739.902344 408.738281 740.367188 408.089844 C 741.730469 406.179688 743.539062 405.019531 745.78125 404.277344 C 747.273438 403.785156 748.699219 402.894531 749.972656 401.9375 C 757.691406 396.152344 757.523438 383.835938 750.515625 378.910156 C 746.976562 376.421875 741.84375 375.925781 738.3125 378.339844 C 734.121094 381.199219 729.644531 382.835938 724.511719 382.335938 C 724.21875 382.308594 723.910156 382.421875 723.597656 382.476562 C 723.597656 402.300781 723.597656 422.03125 723.597656 441.851562 C 725.90625 441.851562 728.082031 441.851562 730.257812 441.851562 C 730.257812 438.371094 730.335938 434.980469 730.234375 431.597656 C 730.132812 428.253906 730.632812 425.089844 732.011719 422.011719 C 732.605469 420.683594 732.929688 419.132812 732.953125 417.679688 C 733.046875 411.203125 732.996094 404.722656 732.976562 398.246094 C 732.96875 396.175781 733.6875 394.558594 735.359375 393.210938 C 736.308594 392.449219 736.847656 391.183594 737.570312 390.144531 C 738.113281 389.359375 738.511719 388.394531 739.226562 387.832031 C 740.75 386.625 742.769531 387.125 744.019531 388.8125 C 745.433594 390.734375 745.273438 393.210938 743.429688 394.566406 C 742.277344 395.410156 740.914062 396.003906 739.578125 396.535156 C 738.710938 396.882812 738.226562 397.3125 738.226562 398.257812 C 738.234375 402.121094 738.230469 405.984375 738.230469 409.851562 Z M 717.421875 383.050781 C 717.007812 382.992188 716.847656 382.949219 716.683594 382.949219 C 710.472656 382.917969 704.871094 381.320312 700.425781 376.675781 C 700.136719 376.375 699.546875 376.152344 699.132812 376.199219 C 694.386719 376.769531 690.332031 378.597656 687.605469 382.75 C 682.886719 389.945312 686.859375 401.335938 694.476562 403.953125 C 696.890625 404.785156 698.90625 406.109375 700.632812 407.960938 C 701.070312 408.429688 701.703125 408.722656 702.636719 409.363281 C 702.429688 404.605469 702.242188 400.324219 702.058594 396.09375 C 697.269531 395.53125 695.582031 394.183594 695.730469 391.230469 C 695.855469 388.820312 697.949219 386.804688 700.265625 386.871094 C 703.121094 386.957031 703.992188 388.320312 704.148438 392.984375 C 708.5625 394.847656 709.492188 396.519531 708.746094 401.25 C 708.675781 401.671875 708.652344 402.105469 708.628906 402.539062 C 708.402344 406.792969 708.109375 411.042969 707.976562 415.300781 C 707.925781 416.992188 707.8125 418.871094 708.441406 420.359375 C 710.453125 425.109375 711.011719 430.003906 710.832031 435.070312 C 710.753906 437.261719 710.816406 439.453125 710.816406 441.765625 C 713.117188 441.765625 715.242188 441.765625 717.417969 441.765625 C 717.421875 422.171875 717.421875 402.65625 717.421875 383.050781 Z M 744.71875 371.242188 C 745.433594 371.386719 746.070312 371.5 746.699219 371.636719 C 749.820312 372.3125 752.832031 373.265625 755.324219 375.378906 C 758.164062 377.789062 761.449219 379.074219 765.125 379.488281 C 770.835938 380.132812 776.71875 376.871094 779.433594 371.492188 C 782.003906 366.398438 781.152344 360.78125 777.097656 356.410156 C 775.75 354.953125 774.140625 353.882812 772.097656 353.722656 C 771.652344 353.6875 770.964844 353.882812 770.75 354.214844 C 768.144531 358.105469 764.457031 360.675781 760.367188 362.691406 C 756.332031 364.679688 752.273438 366.726562 747.53125 366.320312 C 747.234375 366.296875 746.757812 366.667969 746.609375 366.976562 C 745.957031 368.316406 745.386719 369.703125 744.71875 371.242188 Z M 695.910156 371.121094 C 695.550781 369.941406 695.191406 368.988281 694.972656 368.003906 C 694.753906 367.015625 694.269531 366.585938 693.21875 366.558594 C 688.957031 366.429688 685.195312 364.757812 681.515625 362.753906 C 677.640625 360.644531 674.882812 357.296875 671.8125 354.304688 C 671 353.511719 670.164062 353.207031 669.214844 353.546875 C 666.476562 354.53125 664.085938 356.019531 662.546875 358.621094 C 658.9375 364.714844 662.125 373.054688 666.320312 376.285156 C 672.273438 380.867188 679.777344 380.054688 685.542969 375.996094 C 688.675781 373.78125 691.742188 371.570312 695.910156 371.121094 Z M 762.609375 428.726562 C 764.070312 428.585938 765.429688 428.566406 766.738281 428.308594 C 773.484375 426.972656 779.410156 420.0625 777.476562 412.46875 C 774.855469 402.164062 763.882812 399.011719 755.402344 405.007812 C 752.34375 407.171875 749.195312 409.019531 745.714844 410.417969 C 743.972656 411.121094 742.464844 412.457031 740.945312 413.628906 C 740.425781 414.03125 740.183594 414.796875 739.613281 415.71875 C 751.695312 410.859375 761.222656 417.09375 762.609375 428.726562 Z M 699.773438 415.074219 C 699.976562 414.832031 700.179688 414.585938 700.386719 414.34375 C 699.746094 413.945312 699.113281 413.539062 698.46875 413.148438 C 696.578125 412.007812 694.683594 410.878906 692.796875 409.738281 C 690.679688 408.457031 688.4375 407.339844 686.5 405.828125 C 684.492188 404.257812 682.347656 403.171875 679.917969 402.542969 C 673.792969 400.964844 666.25 404.914062 664.261719 410.742188 C 661.171875 419.808594 669.4375 429.558594 679.183594 428.121094 C 679.773438 423.234375 682.203125 419.386719 686.386719 416.6875 C 690.550781 413.996094 694.976562 413.078125 699.773438 415.074219 Z M 698.828125 349.359375 C 692.253906 345.804688 689.230469 340.175781 689.105469 332.742188 C 688.222656 332.742188 687.425781 332.695312 686.632812 332.753906 C 685.722656 332.820312 684.800781 332.898438 683.914062 333.105469 C 678.035156 334.484375 673.308594 338.945312 673.582031 345.636719 C 673.714844 348.996094 674.980469 351.910156 676.4375 354.78125 C 676.742188 355.375 677.636719 355.796875 678.351562 356.039062 C 681.394531 357.078125 684.457031 358.0625 687.542969 358.976562 C 689.726562 359.621094 691.953125 360.121094 694.296875 360.714844 C 694.839844 356.285156 695.703125 352.390625 698.828125 349.359375 Z M 747.285156 361.347656 C 751.980469 359.738281 756.351562 358.113281 760.808594 356.746094 C 764.238281 355.695312 766.234375 353.632812 767.121094 350.128906 C 768.1875 345.882812 768.152344 341.945312 765.429688 338.285156 C 762.652344 334.542969 756.589844 332.042969 752.808594 333.148438 C 752.035156 340.046875 748.832031 345.457031 742.953125 349.214844 C 745.496094 352.726562 746.9375 356.550781 747.285156 361.347656 Z M 759.921875 397.175781 C 760.539062 397.175781 761.082031 397.257812 761.589844 397.164062 C 768.164062 395.925781 773.714844 397.839844 778.269531 402.652344 C 779.03125 403.460938 779.644531 403.269531 780.382812 402.921875 C 790.410156 398.210938 790.144531 384.34375 783.0625 379.640625 C 781.023438 378.285156 781.132812 378.226562 779.234375 379.890625 C 775.59375 383.074219 771.472656 385.121094 766.488281 384.863281 C 764.570312 384.761719 762.65625 384.550781 760.574219 384.378906 C 761.773438 388.738281 761.476562 392.957031 759.921875 397.175781 Z M 723.714844 347.632812 C 723.714844 357.273438 723.714844 366.835938 723.714844 376.394531 C 733.398438 377.269531 741.324219 371.089844 741.785156 362.738281 C 742.222656 354.898438 735.652344 346.589844 723.714844 347.632812 Z M 738.484375 345.679688 C 738.71875 345.558594 738.910156 345.464844 739.101562 345.371094 C 743.617188 343.085938 746.640625 339.757812 746.90625 334.417969 C 747.320312 326.050781 739.308594 320.03125 731.125 322.582031 C 727.210938 323.800781 724.195312 326.003906 723.734375 330.328125 C 723.390625 333.507812 723.601562 336.75 723.566406 339.964844 C 723.5625 340.582031 723.566406 341.199219 723.566406 341.84375 C 729.003906 341.851562 734.027344 342.445312 738.484375 345.679688 Z M 680.8125 383.984375 C 679.320312 384.324219 678.046875 384.777344 676.746094 384.875 C 670.847656 385.328125 665.628906 383.765625 661.558594 379.265625 C 660.695312 378.308594 660.011719 378.300781 659.164062 379.152344 C 658.859375 379.457031 658.53125 379.742188 658.195312 380.011719 C 649.328125 387.273438 653.867188 399.117188 661.636719 403.121094 C 662.027344 403.320312 662.925781 403.160156 663.207031 402.835938 C 666.117188 399.4375 669.878906 397.550781 674.191406 396.890625 C 676.414062 396.550781 678.730469 396.832031 680.980469 396.832031 C 679.792969 392.765625 679.25 388.453125 680.8125 383.984375 Z M 717.394531 347.535156 C 711.234375 346.882812 705.304688 349.386719 702.050781 354.460938 C 698.613281 359.820312 699.160156 365.3125 702.4375 370.445312 C 705.71875 375.578125 711.082031 377.3125 717.394531 376.925781 C 717.394531 367.117188 717.394531 357.316406 717.394531 347.535156 Z M 717.507812 341.675781 C 717.507812 338.339844 717.398438 335.0625 717.550781 331.792969 C 717.636719 330.007812 717.21875 328.527344 716.207031 327.105469 C 712.945312 322.523438 708.753906 320.894531 703.386719 322.464844 C 700.214844 323.394531 697.152344 324.757812 695.707031 328.082031 C 692.902344 334.519531 696.09375 342.292969 702.636719 345.050781 C 703.035156 345.21875 703.6875 345.1875 704.054688 344.964844 C 706.632812 343.441406 709.3125 342.277344 712.339844 342.054688 C 714.097656 341.921875 715.855469 341.796875 717.507812 341.675781 Z M 735.585938 441.953125 C 739.957031 441.691406 743.914062 441.9375 747.640625 441.125 C 753.722656 439.800781 758.425781 433.667969 756.9375 427.503906 C 755.558594 421.816406 751.257812 419 746.320312 419.089844 C 741.460938 419.179688 736.332031 422.800781 735.683594 428.453125 C 735.1875 432.757812 735.585938 437.164062 735.585938 441.953125 Z M 705.34375 441.804688 C 705.136719 437.492188 705.058594 433.445312 704.710938 429.429688 C 704.21875 423.703125 700.386719 419.769531 695.410156 419.582031 C 691.234375 419.429688 688.019531 421.289062 685.992188 424.753906 C 683.964844 428.222656 684.007812 431.941406 686.046875 435.53125 C 688.113281 439.15625 691.628906 440.578125 695.390625 441.203125 C 698.601562 441.742188 701.921875 441.625 705.34375 441.804688 Z M 720.691406 464.238281 C 720.691406 464.246094 720.691406 464.253906 720.691406 464.257812 C 726.890625 464.257812 733.09375 464.226562 739.292969 464.28125 C 740.976562 464.296875 742.144531 463.582031 743.175781 462.367188 C 743.847656 461.574219 743.738281 460.972656 743.027344 460.289062 C 741.925781 459.238281 740.699219 458.707031 739.128906 458.71875 C 730.660156 458.777344 722.191406 458.769531 713.722656 458.765625 C 709.84375 458.761719 705.957031 458.671875 702.078125 458.6875 C 700.359375 458.695312 698.242188 460.5625 698.3125 461.847656 C 698.378906 463.09375 700.390625 464.257812 702.25 464.246094 C 708.394531 464.222656 714.542969 464.238281 720.691406 464.238281 Z M 720.808594 452.960938 C 720.808594 452.976562 720.808594 452.988281 720.808594 453 C 725.183594 453 729.554688 452.976562 733.929688 453.011719 C 736.03125 453.027344 738.132812 453.179688 740.242188 453.207031 C 741.507812 453.226562 743.660156 451.257812 743.617188 450.214844 C 743.566406 449.058594 741.957031 447.816406 740.410156 447.757812 C 739.820312 447.734375 739.222656 447.746094 738.628906 447.75 C 733.773438 447.765625 728.914062 447.789062 724.054688 447.792969 C 716.824219 447.796875 709.589844 447.761719 702.359375 447.78125 C 700.339844 447.789062 698.796875 449.011719 698.875 450.394531 C 698.964844 451.972656 700.300781 452.964844 702.34375 452.964844 C 708.5 452.960938 714.652344 452.960938 720.808594 452.960938 Z M 720.808594 452.960938 " fill-opacity="1" fill-rule="nonzero" data-index="4" style="opacity: 1;"></path><path fill="#640017" d="M 702.613281 475.5 C 714.746094 475.5 726.738281 475.5 738.738281 475.5 C 738.398438 481.453125 730.742188 488.082031 723.359375 488.921875 C 716.226562 489.734375 705.148438 486.011719 702.613281 475.5 Z M 702.613281 475.5 " fill-opacity="1" fill-rule="nonzero" data-index="5"></path><path fill="#ffffff" d="M 717.421875 383.050781 C 717.421875 402.652344 717.421875 422.167969 717.421875 441.765625 C 715.246094 441.765625 713.121094 441.765625 710.820312 441.765625 C 710.820312 439.449219 710.757812 437.253906 710.835938 435.066406 C 711.015625 430 710.457031 425.105469 708.445312 420.359375 C 707.8125 418.867188 707.929688 416.992188 707.980469 415.296875 C 708.113281 411.039062 708.402344 406.789062 708.632812 402.535156 C 708.65625 402.101562 708.679688 401.667969 708.746094 401.246094 C 709.492188 396.519531 708.566406 394.84375 704.148438 392.984375 C 703.992188 388.320312 703.125 386.953125 700.269531 386.867188 C 697.953125 386.800781 695.859375 388.816406 695.734375 391.226562 C 695.585938 394.179688 697.273438 395.53125 702.058594 396.089844 C 702.246094 400.324219 702.433594 404.601562 702.640625 409.359375 C 701.707031 408.71875 701.070312 408.429688 700.632812 407.957031 C 698.90625 406.105469 696.894531 404.78125 694.476562 403.949219 C 686.859375 401.332031 682.890625 389.945312 687.609375 382.746094 C 690.335938 378.59375 694.390625 376.769531 699.136719 376.195312 C 699.550781 376.148438 700.136719 376.367188 700.425781 376.671875 C 704.871094 381.316406 710.472656 382.914062 716.6875 382.945312 C 716.847656 382.953125 717.007812 382.992188 717.421875 383.050781 Z M 717.421875 383.050781 " fill-opacity="1" fill-rule="nonzero" data-index="7" style="opacity: 1; visibility: hidden; fill: rgb(121, 40, 202);"></path><path fill="#ffffff" d="M 695.910156 371.121094 C 691.742188 371.570312 688.675781 373.78125 685.539062 375.992188 C 679.777344 380.050781 672.273438 380.867188 666.316406 376.28125 C 662.121094 373.050781 658.9375 364.710938 662.546875 358.617188 C 664.085938 356.019531 666.472656 354.527344 669.210938 353.546875 C 670.15625 353.207031 670.996094 353.511719 671.808594 354.300781 C 674.878906 357.292969 677.636719 360.640625 681.511719 362.75 C 685.191406 364.753906 688.953125 366.425781 693.214844 366.554688 C 694.269531 366.585938 694.75 367.011719 694.972656 368.003906 C 695.191406 368.992188 695.550781 369.941406 695.910156 371.121094 Z M 695.910156 371.121094 " fill-opacity="1" fill-rule="nonzero" data-index="9" style="opacity: 1; visibility: hidden; fill: rgb(121, 40, 202);"></path><path fill="#ffffff" d="M 699.773438 415.074219 C 694.976562 413.078125 690.554688 413.996094 686.382812 416.691406 C 682.199219 419.390625 679.773438 423.238281 679.179688 428.125 C 669.433594 429.5625 661.167969 419.808594 664.257812 410.746094 C 666.246094 404.914062 673.792969 400.964844 679.914062 402.546875 C 682.34375 403.171875 684.492188 404.257812 686.5 405.828125 C 688.433594 407.34375 690.679688 408.457031 692.792969 409.738281 C 694.679688 410.882812 696.574219 412.011719 698.464844 413.152344 C 699.109375 413.539062 699.742188 413.949219 700.382812 414.347656 C 700.179688 414.585938 699.976562 414.832031 699.773438 415.074219 Z M 699.773438 415.074219 " fill-opacity="1" fill-rule="nonzero" data-index="11" style="opacity: 1; visibility: hidden; fill: rgb(121, 40, 202);"></path><path fill="#ffffff" d="M 747.285156 361.347656 C 746.9375 356.546875 745.496094 352.726562 742.953125 349.214844 C 748.835938 345.457031 752.035156 340.046875 752.808594 333.148438 C 756.589844 332.042969 762.648438 334.542969 765.429688 338.285156 C 768.148438 341.945312 768.1875 345.882812 767.121094 350.128906 C 766.234375 353.632812 764.242188 355.695312 760.808594 356.746094 C 756.355469 358.113281 751.980469 359.738281 747.285156 361.347656 Z M 747.285156 361.347656 " fill-opacity="1" fill-rule="nonzero" data-index="13" style="opacity: 1; visibility: hidden; fill: rgb(121, 40, 202);"></path><path fill="#ffffff" d="M 723.714844 347.632812 C 735.652344 346.589844 742.222656 354.898438 741.785156 362.738281 C 741.324219 371.085938 733.398438 377.269531 723.714844 376.394531 C 723.714844 366.835938 723.714844 357.273438 723.714844 347.632812 Z M 723.714844 347.632812 " fill-opacity="1" fill-rule="nonzero" data-index="15" style="opacity: 1; visibility: hidden; fill: rgb(121, 40, 202);"></path><path fill="#ffffff" d="M 680.8125 383.984375 C 679.25 388.457031 679.792969 392.769531 680.980469 396.835938 C 678.730469 396.835938 676.414062 396.554688 674.191406 396.894531 C 669.878906 397.554688 666.117188 399.441406 663.207031 402.839844 C 662.925781 403.164062 662.027344 403.324219 661.636719 403.125 C 653.867188 399.117188 649.328125 387.277344 658.195312 380.015625 C 658.53125 379.746094 658.859375 379.460938 659.164062 379.15625 C 660.011719 378.304688 660.695312 378.3125 661.558594 379.269531 C 665.628906 383.769531 670.847656 385.328125 676.746094 384.878906 C 678.046875 384.777344 679.320312 384.324219 680.8125 383.984375 Z M 680.8125 383.984375 " fill-opacity="1" fill-rule="nonzero" data-index="17" style="visibility: hidden; fill: rgb(121, 40, 202); opacity: 1;"></path><path fill="#ffffff" d="M 717.507812 341.675781 C 715.851562 341.796875 714.097656 341.921875 712.339844 342.054688 C 709.316406 342.28125 706.632812 343.445312 704.054688 344.96875 C 703.6875 345.1875 703.035156 345.222656 702.636719 345.054688 C 696.09375 342.296875 692.90625 334.523438 695.707031 328.085938 C 697.152344 324.761719 700.214844 323.398438 703.386719 322.46875 C 708.753906 320.894531 712.945312 322.527344 716.207031 327.109375 C 717.214844 328.53125 717.632812 330.011719 717.550781 331.796875 C 717.402344 335.058594 717.507812 338.339844 717.507812 341.675781 Z M 717.507812 341.675781 " fill-opacity="1" fill-rule="nonzero" data-index="19" style="opacity: 1; visibility: hidden; fill: rgb(121, 40, 202);"></path><path fill="#ffffff" d="M 705.34375 441.804688 C 701.921875 441.625 698.601562 441.742188 695.390625 441.207031 C 691.628906 440.578125 688.113281 439.15625 686.046875 435.535156 C 684.007812 431.945312 683.964844 428.226562 685.992188 424.757812 C 688.019531 421.289062 691.238281 419.429688 695.410156 419.585938 C 700.386719 419.769531 704.214844 423.707031 704.710938 429.433594 C 705.058594 433.445312 705.136719 437.492188 705.34375 441.804688 Z M 705.34375 441.804688 " fill-opacity="1" fill-rule="nonzero" data-index="21" style="opacity: 1; visibility: hidden; fill: rgb(121, 40, 202);"></path><path fill="#ffffff" d="M 720.808594 452.960938 C 714.652344 452.960938 708.5 452.960938 702.34375 452.960938 C 700.300781 452.960938 698.964844 451.96875 698.875 450.390625 C 698.792969 449.007812 700.339844 447.785156 702.359375 447.777344 C 709.589844 447.757812 716.824219 447.789062 724.054688 447.789062 C 728.914062 447.789062 733.773438 447.761719 738.628906 447.746094 C 739.222656 447.742188 739.820312 447.734375 740.410156 447.753906 C 741.957031 447.8125 743.566406 449.054688 743.617188 450.210938 C 743.660156 451.253906 741.507812 453.222656 740.242188 453.203125 C 738.136719 453.175781 736.035156 453.023438 733.929688 453.007812 C 729.554688 452.976562 725.183594 452.996094 720.808594 452.996094 C 720.808594 452.988281 720.808594 452.976562 720.808594 452.960938 Z M 720.808594 452.960938 " fill-opacity="1" fill-rule="nonzero" data-index="23" style="opacity: 1; visibility: hidden; fill: rgb(121, 40, 202);"></path></svg>