<svg xmlns="http://www.w3.org/2000/svg" viewBox="0 0 200 200" fill="none">
  <circle cx="100" cy="100" r="92" stroke="white" stroke-width="9"/>
  <path d="M72 170 Q72 180 100 180 Q128 180 128 170 Z" fill="white"/>
  <rect x="72" y="158" width="56" height="6" rx="3" fill="white"/>
  <rect x="72" y="147" width="56" height="6" rx="3" fill="white"/>
  <rect x="72" y="136" width="56" height="6" rx="3" fill="white"/>
  <line x1="100" y1="55" x2="100" y2="135" stroke="white" stroke-width="5" stroke-linecap="round"/>
  <line x1="83"  y1="80" x2="83"  y2="135" stroke="white" stroke-width="5" stroke-linecap="round"/>
  <line x1="117" y1="80" x2="117" y2="135" stroke="white" stroke-width="5" stroke-linecap="round"/>
  <line x1="83"  y1="80" x2="100" y2="80"  stroke="white" stroke-width="5" stroke-linecap="round"/>
  <line x1="100" y1="80" x2="117" y2="80"  stroke="white" stroke-width="5" stroke-linecap="round"/>
  <circle cx="100" cy="47"  r="15" stroke="white" stroke-width="6" fill="none"/>
  <circle cx="77"  cy="52"  r="14" stroke="white" stroke-width="6" fill="none"/>
  <circle cx="123" cy="52"  r="14" stroke="white" stroke-width="6" fill="none"/>
  <circle cx="60"  cy="76"  r="16" stroke="white" stroke-width="6" fill="none"/>
  <circle cx="140" cy="76"  r="16" stroke="white" stroke-width="6" fill="none"/>
  <circle cx="80"  cy="83"  r="13" stroke="white" stroke-width="6" fill="none"/>
  <circle cx="120" cy="83"  r="13" stroke="white" stroke-width="6" fill="none"/>
  <circle cx="62"  cy="107" r="16" stroke="white" stroke-width="6" fill="none"/>
  <circle cx="138" cy="107" r="16" stroke="white" stroke-width="6" fill="none"/>
  <rect x="0" y="130" width="200" height="80" fill="#4a0011"/>
  <rect x="72" y="136" width="56" height="6" rx="3" fill="white"/>
  <rect x="72" y="147" width="56" height="6" rx="3" fill="white"/>
  <rect x="72" y="158" width="56" height="6" rx="3" fill="white"/>
  <path d="M72 170 Q72 180 100 180 Q128 180 128 170 Z" fill="white"/>
</svg>
